<mxfile host="app.diagrams.net" modified="2024-02-07T15:59:17.279Z" agent="Mozilla/5.0 (Windows NT 10.0; Win64; x64) AppleWebKit/537.36 (KHTML, like Gecko) Chrome/121.0.0.0 Safari/537.36" etag="Ivf7zAdTw_IIEBtx2BOL" version="23.1.1" type="device">
  <diagram id="R2lEEEUBdFMjLlhIrx00" name="Page-1">
    <mxGraphModel dx="2216" dy="743" grid="1" gridSize="10" guides="1" tooltips="1" connect="1" arrows="1" fold="1" page="1" pageScale="1" pageWidth="850" pageHeight="1100" math="0" shadow="0" extFonts="Permanent Marker^https://fonts.googleapis.com/css?family=Permanent+Marker">
      <root>
        <mxCell id="0" />
        <mxCell id="1" parent="0" />
        <mxCell id="ImPGjt9nL06v0NSoHQ66-117" value="" style="shape=table;startSize=0;container=1;collapsible=0;childLayout=tableLayout;" parent="1" vertex="1">
          <mxGeometry x="10" y="370" width="820" height="40" as="geometry" />
        </mxCell>
        <mxCell id="ImPGjt9nL06v0NSoHQ66-118" value="" style="shape=tableRow;horizontal=0;startSize=0;swimlaneHead=0;swimlaneBody=0;strokeColor=inherit;top=0;left=0;bottom=0;right=0;collapsible=0;dropTarget=0;fillColor=none;points=[[0,0.5],[1,0.5]];portConstraint=eastwest;" parent="ImPGjt9nL06v0NSoHQ66-117" vertex="1">
          <mxGeometry width="820" height="40" as="geometry" />
        </mxCell>
        <mxCell id="ImPGjt9nL06v0NSoHQ66-119" value="&lt;u&gt;ID&lt;/u&gt;" style="shape=partialRectangle;html=1;whiteSpace=wrap;connectable=0;strokeColor=inherit;overflow=hidden;fillColor=none;top=0;left=0;bottom=0;right=0;pointerEvents=1;" parent="ImPGjt9nL06v0NSoHQ66-118" vertex="1">
          <mxGeometry width="164" height="40" as="geometry">
            <mxRectangle width="164" height="40" as="alternateBounds" />
          </mxGeometry>
        </mxCell>
        <mxCell id="ImPGjt9nL06v0NSoHQ66-120" value="nombreAccidente" style="shape=partialRectangle;html=1;whiteSpace=wrap;connectable=0;strokeColor=inherit;overflow=hidden;fillColor=none;top=0;left=0;bottom=0;right=0;pointerEvents=1;" parent="ImPGjt9nL06v0NSoHQ66-118" vertex="1">
          <mxGeometry x="164" width="164" height="40" as="geometry">
            <mxRectangle width="164" height="40" as="alternateBounds" />
          </mxGeometry>
        </mxCell>
        <mxCell id="ImPGjt9nL06v0NSoHQ66-121" value="posVertical" style="shape=partialRectangle;html=1;whiteSpace=wrap;connectable=0;strokeColor=inherit;overflow=hidden;fillColor=none;top=0;left=0;bottom=0;right=0;pointerEvents=1;" parent="ImPGjt9nL06v0NSoHQ66-118" vertex="1">
          <mxGeometry x="328" width="164" height="40" as="geometry">
            <mxRectangle width="164" height="40" as="alternateBounds" />
          </mxGeometry>
        </mxCell>
        <mxCell id="ImPGjt9nL06v0NSoHQ66-122" value="posHorizontal" style="shape=partialRectangle;html=1;whiteSpace=wrap;connectable=0;strokeColor=inherit;overflow=hidden;fillColor=none;top=0;left=0;bottom=0;right=0;pointerEvents=1;" parent="ImPGjt9nL06v0NSoHQ66-118" vertex="1">
          <mxGeometry x="492" width="164" height="40" as="geometry">
            <mxRectangle width="164" height="40" as="alternateBounds" />
          </mxGeometry>
        </mxCell>
        <mxCell id="ImPGjt9nL06v0NSoHQ66-123" value="tipo" style="shape=partialRectangle;html=1;whiteSpace=wrap;connectable=0;strokeColor=inherit;overflow=hidden;fillColor=none;top=0;left=0;bottom=0;right=0;pointerEvents=1;" parent="ImPGjt9nL06v0NSoHQ66-118" vertex="1">
          <mxGeometry x="656" width="164" height="40" as="geometry">
            <mxRectangle width="164" height="40" as="alternateBounds" />
          </mxGeometry>
        </mxCell>
        <mxCell id="ImPGjt9nL06v0NSoHQ66-124" value="&lt;b&gt;ACCIDENTE GEOGRAFICO&lt;/b&gt;" style="text;html=1;strokeColor=none;fillColor=none;align=center;verticalAlign=middle;whiteSpace=wrap;rounded=0;" parent="1" vertex="1">
          <mxGeometry x="297.5" y="340" width="245" height="30" as="geometry" />
        </mxCell>
        <mxCell id="ImPGjt9nL06v0NSoHQ66-126" value="2NF" style="text;strokeColor=none;fillColor=none;html=1;fontSize=24;fontStyle=1;verticalAlign=middle;align=center;" parent="1" vertex="1">
          <mxGeometry x="-230" y="370" width="100" height="40" as="geometry" />
        </mxCell>
        <mxCell id="_f50yiyxXnha7IkVcN_A-1" value="" style="shape=table;startSize=0;container=1;collapsible=0;childLayout=tableLayout;" vertex="1" parent="1">
          <mxGeometry x="92" y="530" width="656" height="40" as="geometry" />
        </mxCell>
        <mxCell id="_f50yiyxXnha7IkVcN_A-2" value="" style="shape=tableRow;horizontal=0;startSize=0;swimlaneHead=0;swimlaneBody=0;strokeColor=inherit;top=0;left=0;bottom=0;right=0;collapsible=0;dropTarget=0;fillColor=none;points=[[0,0.5],[1,0.5]];portConstraint=eastwest;" vertex="1" parent="_f50yiyxXnha7IkVcN_A-1">
          <mxGeometry width="656" height="40" as="geometry" />
        </mxCell>
        <mxCell id="_f50yiyxXnha7IkVcN_A-4" value="&lt;u&gt;posVertical&lt;/u&gt;" style="shape=partialRectangle;html=1;whiteSpace=wrap;connectable=0;strokeColor=inherit;overflow=hidden;fillColor=none;top=0;left=0;bottom=0;right=0;pointerEvents=1;" vertex="1" parent="_f50yiyxXnha7IkVcN_A-2">
          <mxGeometry width="164" height="40" as="geometry">
            <mxRectangle width="164" height="40" as="alternateBounds" />
          </mxGeometry>
        </mxCell>
        <mxCell id="_f50yiyxXnha7IkVcN_A-5" value="&lt;u&gt;posHorizontal&lt;/u&gt;" style="shape=partialRectangle;html=1;whiteSpace=wrap;connectable=0;strokeColor=inherit;overflow=hidden;fillColor=none;top=0;left=0;bottom=0;right=0;pointerEvents=1;" vertex="1" parent="_f50yiyxXnha7IkVcN_A-2">
          <mxGeometry x="164" width="164" height="40" as="geometry">
            <mxRectangle width="164" height="40" as="alternateBounds" />
          </mxGeometry>
        </mxCell>
        <mxCell id="_f50yiyxXnha7IkVcN_A-6" value="nombreAccidente" style="shape=partialRectangle;html=1;whiteSpace=wrap;connectable=0;strokeColor=inherit;overflow=hidden;fillColor=none;top=0;left=0;bottom=0;right=0;pointerEvents=1;" vertex="1" parent="_f50yiyxXnha7IkVcN_A-2">
          <mxGeometry x="328" width="164" height="40" as="geometry">
            <mxRectangle width="164" height="40" as="alternateBounds" />
          </mxGeometry>
        </mxCell>
        <mxCell id="_f50yiyxXnha7IkVcN_A-7" value="tipo" style="shape=partialRectangle;html=1;whiteSpace=wrap;connectable=0;strokeColor=inherit;overflow=hidden;fillColor=none;top=0;left=0;bottom=0;right=0;pointerEvents=1;" vertex="1" parent="_f50yiyxXnha7IkVcN_A-2">
          <mxGeometry x="492" width="164" height="40" as="geometry">
            <mxRectangle width="164" height="40" as="alternateBounds" />
          </mxGeometry>
        </mxCell>
        <mxCell id="_f50yiyxXnha7IkVcN_A-8" value="&lt;b&gt;ACCIDENTE GEOGRAFICO&lt;/b&gt;" style="text;html=1;strokeColor=none;fillColor=none;align=center;verticalAlign=middle;whiteSpace=wrap;rounded=0;" vertex="1" parent="1">
          <mxGeometry x="302.5" y="500" width="245" height="30" as="geometry" />
        </mxCell>
        <mxCell id="_f50yiyxXnha7IkVcN_A-9" value="3NF" style="text;strokeColor=none;fillColor=none;html=1;fontSize=24;fontStyle=1;verticalAlign=middle;align=center;" vertex="1" parent="1">
          <mxGeometry x="-230" y="540" width="100" height="40" as="geometry" />
        </mxCell>
        <mxCell id="_f50yiyxXnha7IkVcN_A-10" value="" style="endArrow=classic;html=1;rounded=0;" edge="1" parent="1">
          <mxGeometry width="50" height="50" relative="1" as="geometry">
            <mxPoint x="-10" y="390" as="sourcePoint" />
            <mxPoint x="60" y="550" as="targetPoint" />
            <Array as="points">
              <mxPoint x="-10" y="550" />
            </Array>
          </mxGeometry>
        </mxCell>
        <mxCell id="_f50yiyxXnha7IkVcN_A-11" value="&lt;font style=&quot;font-size: 14px;&quot;&gt;En la segunda forma normalizada podemos ver como hay una dependencia funcional transitiva.&lt;br&gt;&lt;br&gt;(Con los atributos posVertical y pos Horizontal podemos saber el nombre del Accidente &lt;/font&gt;&lt;font style=&quot;font-size: 14px;&quot;&gt;&lt;font style=&quot;&quot;&gt;Geográfico)&lt;/font&gt;&lt;br&gt;&lt;br&gt;Por lo que, si eliminamos el ID y establecemos las posiciones como claves primarias, todos los atributos dependerán de esa clave.&lt;/font&gt;" style="text;html=1;strokeColor=none;fillColor=none;align=center;verticalAlign=middle;whiteSpace=wrap;rounded=0;" vertex="1" parent="1">
          <mxGeometry x="-335" y="650" width="310" height="50" as="geometry" />
        </mxCell>
        <mxCell id="_f50yiyxXnha7IkVcN_A-13" value="" style="shape=table;startSize=0;container=1;collapsible=0;childLayout=tableLayout;" vertex="1" parent="1">
          <mxGeometry x="170" y="860" width="492" height="40" as="geometry" />
        </mxCell>
        <mxCell id="_f50yiyxXnha7IkVcN_A-14" value="" style="shape=tableRow;horizontal=0;startSize=0;swimlaneHead=0;swimlaneBody=0;strokeColor=inherit;top=0;left=0;bottom=0;right=0;collapsible=0;dropTarget=0;fillColor=none;points=[[0,0.5],[1,0.5]];portConstraint=eastwest;" vertex="1" parent="_f50yiyxXnha7IkVcN_A-13">
          <mxGeometry width="492" height="40" as="geometry" />
        </mxCell>
        <mxCell id="_f50yiyxXnha7IkVcN_A-15" value="&lt;u&gt;posVertical&lt;/u&gt;" style="shape=partialRectangle;html=1;whiteSpace=wrap;connectable=0;strokeColor=inherit;overflow=hidden;fillColor=none;top=0;left=0;bottom=0;right=0;pointerEvents=1;" vertex="1" parent="_f50yiyxXnha7IkVcN_A-14">
          <mxGeometry width="164" height="40" as="geometry">
            <mxRectangle width="164" height="40" as="alternateBounds" />
          </mxGeometry>
        </mxCell>
        <mxCell id="_f50yiyxXnha7IkVcN_A-16" value="&lt;u&gt;posHorizontal&lt;/u&gt;" style="shape=partialRectangle;html=1;whiteSpace=wrap;connectable=0;strokeColor=inherit;overflow=hidden;fillColor=none;top=0;left=0;bottom=0;right=0;pointerEvents=1;" vertex="1" parent="_f50yiyxXnha7IkVcN_A-14">
          <mxGeometry x="164" width="164" height="40" as="geometry">
            <mxRectangle width="164" height="40" as="alternateBounds" />
          </mxGeometry>
        </mxCell>
        <mxCell id="_f50yiyxXnha7IkVcN_A-21" value="longitud" style="shape=partialRectangle;html=1;whiteSpace=wrap;connectable=0;strokeColor=inherit;overflow=hidden;fillColor=none;top=0;left=0;bottom=0;right=0;pointerEvents=1;" vertex="1" parent="_f50yiyxXnha7IkVcN_A-14">
          <mxGeometry x="328" width="164" height="40" as="geometry">
            <mxRectangle width="164" height="40" as="alternateBounds" />
          </mxGeometry>
        </mxCell>
        <mxCell id="_f50yiyxXnha7IkVcN_A-19" value="&lt;b&gt;RIO&lt;/b&gt;" style="text;html=1;strokeColor=none;fillColor=none;align=center;verticalAlign=middle;whiteSpace=wrap;rounded=0;" vertex="1" parent="1">
          <mxGeometry x="286.5" y="830" width="245" height="30" as="geometry" />
        </mxCell>
        <mxCell id="_f50yiyxXnha7IkVcN_A-22" value="3NF" style="text;strokeColor=none;fillColor=none;html=1;fontSize=24;fontStyle=1;verticalAlign=middle;align=center;" vertex="1" parent="1">
          <mxGeometry x="20" y="860" width="100" height="40" as="geometry" />
        </mxCell>
        <mxCell id="_f50yiyxXnha7IkVcN_A-23" value="" style="shape=table;startSize=0;container=1;collapsible=0;childLayout=tableLayout;" vertex="1" parent="1">
          <mxGeometry x="170" y="960" width="492" height="40" as="geometry" />
        </mxCell>
        <mxCell id="_f50yiyxXnha7IkVcN_A-24" value="" style="shape=tableRow;horizontal=0;startSize=0;swimlaneHead=0;swimlaneBody=0;strokeColor=inherit;top=0;left=0;bottom=0;right=0;collapsible=0;dropTarget=0;fillColor=none;points=[[0,0.5],[1,0.5]];portConstraint=eastwest;" vertex="1" parent="_f50yiyxXnha7IkVcN_A-23">
          <mxGeometry width="492" height="40" as="geometry" />
        </mxCell>
        <mxCell id="_f50yiyxXnha7IkVcN_A-25" value="&lt;u&gt;posVertical&lt;/u&gt;" style="shape=partialRectangle;html=1;whiteSpace=wrap;connectable=0;strokeColor=inherit;overflow=hidden;fillColor=none;top=0;left=0;bottom=0;right=0;pointerEvents=1;" vertex="1" parent="_f50yiyxXnha7IkVcN_A-24">
          <mxGeometry width="164" height="40" as="geometry">
            <mxRectangle width="164" height="40" as="alternateBounds" />
          </mxGeometry>
        </mxCell>
        <mxCell id="_f50yiyxXnha7IkVcN_A-26" value="&lt;u&gt;posHorizontal&lt;/u&gt;" style="shape=partialRectangle;html=1;whiteSpace=wrap;connectable=0;strokeColor=inherit;overflow=hidden;fillColor=none;top=0;left=0;bottom=0;right=0;pointerEvents=1;" vertex="1" parent="_f50yiyxXnha7IkVcN_A-24">
          <mxGeometry x="164" width="164" height="40" as="geometry">
            <mxRectangle width="164" height="40" as="alternateBounds" />
          </mxGeometry>
        </mxCell>
        <mxCell id="_f50yiyxXnha7IkVcN_A-27" value="altitud" style="shape=partialRectangle;html=1;whiteSpace=wrap;connectable=0;strokeColor=inherit;overflow=hidden;fillColor=none;top=0;left=0;bottom=0;right=0;pointerEvents=1;" vertex="1" parent="_f50yiyxXnha7IkVcN_A-24">
          <mxGeometry x="328" width="164" height="40" as="geometry">
            <mxRectangle width="164" height="40" as="alternateBounds" />
          </mxGeometry>
        </mxCell>
        <mxCell id="_f50yiyxXnha7IkVcN_A-28" value="&lt;b&gt;MONTAÑA&lt;/b&gt;" style="text;html=1;strokeColor=none;fillColor=none;align=center;verticalAlign=middle;whiteSpace=wrap;rounded=0;" vertex="1" parent="1">
          <mxGeometry x="286.5" y="930" width="245" height="30" as="geometry" />
        </mxCell>
        <mxCell id="_f50yiyxXnha7IkVcN_A-29" value="3NF" style="text;strokeColor=none;fillColor=none;html=1;fontSize=24;fontStyle=1;verticalAlign=middle;align=center;" vertex="1" parent="1">
          <mxGeometry x="10" y="960" width="100" height="40" as="geometry" />
        </mxCell>
        <mxCell id="_f50yiyxXnha7IkVcN_A-31" value="" style="shape=table;startSize=0;container=1;collapsible=0;childLayout=tableLayout;" vertex="1" parent="1">
          <mxGeometry x="170" y="1050" width="492" height="40" as="geometry" />
        </mxCell>
        <mxCell id="_f50yiyxXnha7IkVcN_A-32" value="" style="shape=tableRow;horizontal=0;startSize=0;swimlaneHead=0;swimlaneBody=0;strokeColor=inherit;top=0;left=0;bottom=0;right=0;collapsible=0;dropTarget=0;fillColor=none;points=[[0,0.5],[1,0.5]];portConstraint=eastwest;" vertex="1" parent="_f50yiyxXnha7IkVcN_A-31">
          <mxGeometry width="492" height="40" as="geometry" />
        </mxCell>
        <mxCell id="_f50yiyxXnha7IkVcN_A-33" value="&lt;u&gt;posVertical&lt;/u&gt;" style="shape=partialRectangle;html=1;whiteSpace=wrap;connectable=0;strokeColor=inherit;overflow=hidden;fillColor=none;top=0;left=0;bottom=0;right=0;pointerEvents=1;" vertex="1" parent="_f50yiyxXnha7IkVcN_A-32">
          <mxGeometry width="164" height="40" as="geometry">
            <mxRectangle width="164" height="40" as="alternateBounds" />
          </mxGeometry>
        </mxCell>
        <mxCell id="_f50yiyxXnha7IkVcN_A-34" value="&lt;u&gt;posHorizontal&lt;/u&gt;" style="shape=partialRectangle;html=1;whiteSpace=wrap;connectable=0;strokeColor=inherit;overflow=hidden;fillColor=none;top=0;left=0;bottom=0;right=0;pointerEvents=1;" vertex="1" parent="_f50yiyxXnha7IkVcN_A-32">
          <mxGeometry x="164" width="164" height="40" as="geometry">
            <mxRectangle width="164" height="40" as="alternateBounds" />
          </mxGeometry>
        </mxCell>
        <mxCell id="_f50yiyxXnha7IkVcN_A-35" value="extensión" style="shape=partialRectangle;html=1;whiteSpace=wrap;connectable=0;strokeColor=inherit;overflow=hidden;fillColor=none;top=0;left=0;bottom=0;right=0;pointerEvents=1;" vertex="1" parent="_f50yiyxXnha7IkVcN_A-32">
          <mxGeometry x="328" width="164" height="40" as="geometry">
            <mxRectangle width="164" height="40" as="alternateBounds" />
          </mxGeometry>
        </mxCell>
        <mxCell id="_f50yiyxXnha7IkVcN_A-36" value="&lt;b&gt;LAGO&lt;/b&gt;" style="text;html=1;strokeColor=none;fillColor=none;align=center;verticalAlign=middle;whiteSpace=wrap;rounded=0;" vertex="1" parent="1">
          <mxGeometry x="286.5" y="1020" width="245" height="30" as="geometry" />
        </mxCell>
        <mxCell id="_f50yiyxXnha7IkVcN_A-37" value="3NF" style="text;strokeColor=none;fillColor=none;html=1;fontSize=24;fontStyle=1;verticalAlign=middle;align=center;" vertex="1" parent="1">
          <mxGeometry x="10" y="1050" width="100" height="40" as="geometry" />
        </mxCell>
        <mxCell id="_f50yiyxXnha7IkVcN_A-38" value="" style="shape=table;startSize=0;container=1;collapsible=0;childLayout=tableLayout;" vertex="1" parent="1">
          <mxGeometry x="170" y="1160" width="492" height="40" as="geometry" />
        </mxCell>
        <mxCell id="_f50yiyxXnha7IkVcN_A-39" value="" style="shape=tableRow;horizontal=0;startSize=0;swimlaneHead=0;swimlaneBody=0;strokeColor=inherit;top=0;left=0;bottom=0;right=0;collapsible=0;dropTarget=0;fillColor=none;points=[[0,0.5],[1,0.5]];portConstraint=eastwest;" vertex="1" parent="_f50yiyxXnha7IkVcN_A-38">
          <mxGeometry width="492" height="40" as="geometry" />
        </mxCell>
        <mxCell id="_f50yiyxXnha7IkVcN_A-40" value="&lt;u&gt;posVertical&lt;/u&gt;" style="shape=partialRectangle;html=1;whiteSpace=wrap;connectable=0;strokeColor=inherit;overflow=hidden;fillColor=none;top=0;left=0;bottom=0;right=0;pointerEvents=1;" vertex="1" parent="_f50yiyxXnha7IkVcN_A-39">
          <mxGeometry width="164" height="40" as="geometry">
            <mxRectangle width="164" height="40" as="alternateBounds" />
          </mxGeometry>
        </mxCell>
        <mxCell id="_f50yiyxXnha7IkVcN_A-41" value="&lt;u&gt;posHorizontal&lt;/u&gt;" style="shape=partialRectangle;html=1;whiteSpace=wrap;connectable=0;strokeColor=inherit;overflow=hidden;fillColor=none;top=0;left=0;bottom=0;right=0;pointerEvents=1;" vertex="1" parent="_f50yiyxXnha7IkVcN_A-39">
          <mxGeometry x="164" width="164" height="40" as="geometry">
            <mxRectangle width="164" height="40" as="alternateBounds" />
          </mxGeometry>
        </mxCell>
        <mxCell id="_f50yiyxXnha7IkVcN_A-42" value="&lt;u&gt;nombrePaís&lt;/u&gt;" style="shape=partialRectangle;html=1;whiteSpace=wrap;connectable=0;strokeColor=inherit;overflow=hidden;fillColor=none;top=0;left=0;bottom=0;right=0;pointerEvents=1;" vertex="1" parent="_f50yiyxXnha7IkVcN_A-39">
          <mxGeometry x="328" width="164" height="40" as="geometry">
            <mxRectangle width="164" height="40" as="alternateBounds" />
          </mxGeometry>
        </mxCell>
        <mxCell id="_f50yiyxXnha7IkVcN_A-43" value="&lt;b&gt;TIENE&lt;/b&gt;" style="text;html=1;strokeColor=none;fillColor=none;align=center;verticalAlign=middle;whiteSpace=wrap;rounded=0;" vertex="1" parent="1">
          <mxGeometry x="279.5" y="1130" width="245" height="30" as="geometry" />
        </mxCell>
        <mxCell id="_f50yiyxXnha7IkVcN_A-45" value="3NF" style="text;strokeColor=none;fillColor=none;html=1;fontSize=24;fontStyle=1;verticalAlign=middle;align=center;" vertex="1" parent="1">
          <mxGeometry x="20" y="1160" width="100" height="40" as="geometry" />
        </mxCell>
        <mxCell id="_f50yiyxXnha7IkVcN_A-46" value="" style="shape=table;startSize=0;container=1;collapsible=0;childLayout=tableLayout;" vertex="1" parent="1">
          <mxGeometry x="163" y="1280" width="492" height="40" as="geometry" />
        </mxCell>
        <mxCell id="_f50yiyxXnha7IkVcN_A-47" value="" style="shape=tableRow;horizontal=0;startSize=0;swimlaneHead=0;swimlaneBody=0;strokeColor=inherit;top=0;left=0;bottom=0;right=0;collapsible=0;dropTarget=0;fillColor=none;points=[[0,0.5],[1,0.5]];portConstraint=eastwest;" vertex="1" parent="_f50yiyxXnha7IkVcN_A-46">
          <mxGeometry width="492" height="40" as="geometry" />
        </mxCell>
        <mxCell id="_f50yiyxXnha7IkVcN_A-48" value="&lt;u&gt;nombrePaís&lt;/u&gt;" style="shape=partialRectangle;html=1;whiteSpace=wrap;connectable=0;strokeColor=inherit;overflow=hidden;fillColor=none;top=0;left=0;bottom=0;right=0;pointerEvents=1;" vertex="1" parent="_f50yiyxXnha7IkVcN_A-47">
          <mxGeometry width="164" height="40" as="geometry">
            <mxRectangle width="164" height="40" as="alternateBounds" />
          </mxGeometry>
        </mxCell>
        <mxCell id="_f50yiyxXnha7IkVcN_A-49" value="extensión" style="shape=partialRectangle;html=1;whiteSpace=wrap;connectable=0;strokeColor=inherit;overflow=hidden;fillColor=none;top=0;left=0;bottom=0;right=0;pointerEvents=1;" vertex="1" parent="_f50yiyxXnha7IkVcN_A-47">
          <mxGeometry x="164" width="164" height="40" as="geometry">
            <mxRectangle width="164" height="40" as="alternateBounds" />
          </mxGeometry>
        </mxCell>
        <mxCell id="_f50yiyxXnha7IkVcN_A-50" value="población" style="shape=partialRectangle;html=1;whiteSpace=wrap;connectable=0;strokeColor=inherit;overflow=hidden;fillColor=none;top=0;left=0;bottom=0;right=0;pointerEvents=1;" vertex="1" parent="_f50yiyxXnha7IkVcN_A-47">
          <mxGeometry x="328" width="164" height="40" as="geometry">
            <mxRectangle width="164" height="40" as="alternateBounds" />
          </mxGeometry>
        </mxCell>
        <mxCell id="_f50yiyxXnha7IkVcN_A-51" value="&lt;b&gt;PAIS&lt;/b&gt;" style="text;html=1;strokeColor=none;fillColor=none;align=center;verticalAlign=middle;whiteSpace=wrap;rounded=0;" vertex="1" parent="1">
          <mxGeometry x="279.5" y="1250" width="245" height="30" as="geometry" />
        </mxCell>
        <mxCell id="_f50yiyxXnha7IkVcN_A-52" value="3NF" style="text;strokeColor=none;fillColor=none;html=1;fontSize=24;fontStyle=1;verticalAlign=middle;align=center;" vertex="1" parent="1">
          <mxGeometry x="20" y="1280" width="100" height="40" as="geometry" />
        </mxCell>
        <mxCell id="_f50yiyxXnha7IkVcN_A-53" value="" style="shape=table;startSize=0;container=1;collapsible=0;childLayout=tableLayout;" vertex="1" parent="1">
          <mxGeometry x="250" y="1400" width="328" height="40" as="geometry" />
        </mxCell>
        <mxCell id="_f50yiyxXnha7IkVcN_A-54" value="" style="shape=tableRow;horizontal=0;startSize=0;swimlaneHead=0;swimlaneBody=0;strokeColor=inherit;top=0;left=0;bottom=0;right=0;collapsible=0;dropTarget=0;fillColor=none;points=[[0,0.5],[1,0.5]];portConstraint=eastwest;" vertex="1" parent="_f50yiyxXnha7IkVcN_A-53">
          <mxGeometry width="328" height="40" as="geometry" />
        </mxCell>
        <mxCell id="_f50yiyxXnha7IkVcN_A-55" value="&lt;u&gt;nombrePaís&lt;/u&gt;" style="shape=partialRectangle;html=1;whiteSpace=wrap;connectable=0;strokeColor=inherit;overflow=hidden;fillColor=none;top=0;left=0;bottom=0;right=0;pointerEvents=1;" vertex="1" parent="_f50yiyxXnha7IkVcN_A-54">
          <mxGeometry width="164" height="40" as="geometry">
            <mxRectangle width="164" height="40" as="alternateBounds" />
          </mxGeometry>
        </mxCell>
        <mxCell id="_f50yiyxXnha7IkVcN_A-56" value="&lt;u&gt;idLocalidad&lt;/u&gt;" style="shape=partialRectangle;html=1;whiteSpace=wrap;connectable=0;strokeColor=inherit;overflow=hidden;fillColor=none;top=0;left=0;bottom=0;right=0;pointerEvents=1;" vertex="1" parent="_f50yiyxXnha7IkVcN_A-54">
          <mxGeometry x="164" width="164" height="40" as="geometry">
            <mxRectangle width="164" height="40" as="alternateBounds" />
          </mxGeometry>
        </mxCell>
        <mxCell id="_f50yiyxXnha7IkVcN_A-58" value="&lt;b&gt;CONTIENE&lt;/b&gt;" style="text;html=1;strokeColor=none;fillColor=none;align=center;verticalAlign=middle;whiteSpace=wrap;rounded=0;" vertex="1" parent="1">
          <mxGeometry x="286.5" y="1370" width="245" height="30" as="geometry" />
        </mxCell>
        <mxCell id="_f50yiyxXnha7IkVcN_A-59" value="3NF" style="text;strokeColor=none;fillColor=none;html=1;fontSize=24;fontStyle=1;verticalAlign=middle;align=center;" vertex="1" parent="1">
          <mxGeometry x="20" y="1400" width="100" height="40" as="geometry" />
        </mxCell>
        <mxCell id="_f50yiyxXnha7IkVcN_A-60" value="" style="shape=table;startSize=0;container=1;collapsible=0;childLayout=tableLayout;" vertex="1" parent="1">
          <mxGeometry x="240" y="1520" width="328" height="40" as="geometry" />
        </mxCell>
        <mxCell id="_f50yiyxXnha7IkVcN_A-61" value="" style="shape=tableRow;horizontal=0;startSize=0;swimlaneHead=0;swimlaneBody=0;strokeColor=inherit;top=0;left=0;bottom=0;right=0;collapsible=0;dropTarget=0;fillColor=none;points=[[0,0.5],[1,0.5]];portConstraint=eastwest;" vertex="1" parent="_f50yiyxXnha7IkVcN_A-60">
          <mxGeometry width="328" height="40" as="geometry" />
        </mxCell>
        <mxCell id="_f50yiyxXnha7IkVcN_A-62" value="&lt;u&gt;idLocalidad&lt;/u&gt;" style="shape=partialRectangle;html=1;whiteSpace=wrap;connectable=0;strokeColor=inherit;overflow=hidden;fillColor=none;top=0;left=0;bottom=0;right=0;pointerEvents=1;" vertex="1" parent="_f50yiyxXnha7IkVcN_A-61">
          <mxGeometry width="164" height="40" as="geometry">
            <mxRectangle width="164" height="40" as="alternateBounds" />
          </mxGeometry>
        </mxCell>
        <mxCell id="_f50yiyxXnha7IkVcN_A-63" value="nombreLocalidad" style="shape=partialRectangle;html=1;whiteSpace=wrap;connectable=0;strokeColor=inherit;overflow=hidden;fillColor=none;top=0;left=0;bottom=0;right=0;pointerEvents=1;" vertex="1" parent="_f50yiyxXnha7IkVcN_A-61">
          <mxGeometry x="164" width="164" height="40" as="geometry">
            <mxRectangle width="164" height="40" as="alternateBounds" />
          </mxGeometry>
        </mxCell>
        <mxCell id="_f50yiyxXnha7IkVcN_A-64" value="&lt;b&gt;LOCALIDAD&lt;/b&gt;" style="text;html=1;strokeColor=none;fillColor=none;align=center;verticalAlign=middle;whiteSpace=wrap;rounded=0;" vertex="1" parent="1">
          <mxGeometry x="276.5" y="1490" width="245" height="30" as="geometry" />
        </mxCell>
        <mxCell id="_f50yiyxXnha7IkVcN_A-65" value="3NF" style="text;strokeColor=none;fillColor=none;html=1;fontSize=24;fontStyle=1;verticalAlign=middle;align=center;" vertex="1" parent="1">
          <mxGeometry x="20" y="1520" width="100" height="40" as="geometry" />
        </mxCell>
        <mxCell id="_f50yiyxXnha7IkVcN_A-66" value="" style="shape=table;startSize=0;container=1;collapsible=0;childLayout=tableLayout;" vertex="1" parent="1">
          <mxGeometry x="163" y="1640" width="492" height="40" as="geometry" />
        </mxCell>
        <mxCell id="_f50yiyxXnha7IkVcN_A-67" value="" style="shape=tableRow;horizontal=0;startSize=0;swimlaneHead=0;swimlaneBody=0;strokeColor=inherit;top=0;left=0;bottom=0;right=0;collapsible=0;dropTarget=0;fillColor=none;points=[[0,0.5],[1,0.5]];portConstraint=eastwest;" vertex="1" parent="_f50yiyxXnha7IkVcN_A-66">
          <mxGeometry width="492" height="40" as="geometry" />
        </mxCell>
        <mxCell id="_f50yiyxXnha7IkVcN_A-68" value="&lt;u&gt;idLocalidad&lt;/u&gt;" style="shape=partialRectangle;html=1;whiteSpace=wrap;connectable=0;strokeColor=inherit;overflow=hidden;fillColor=none;top=0;left=0;bottom=0;right=0;pointerEvents=1;" vertex="1" parent="_f50yiyxXnha7IkVcN_A-67">
          <mxGeometry width="164" height="40" as="geometry">
            <mxRectangle width="164" height="40" as="alternateBounds" />
          </mxGeometry>
        </mxCell>
        <mxCell id="_f50yiyxXnha7IkVcN_A-69" value="&lt;u&gt;posVertical&lt;/u&gt;" style="shape=partialRectangle;html=1;whiteSpace=wrap;connectable=0;strokeColor=inherit;overflow=hidden;fillColor=none;top=0;left=0;bottom=0;right=0;pointerEvents=1;" vertex="1" parent="_f50yiyxXnha7IkVcN_A-67">
          <mxGeometry x="164" width="164" height="40" as="geometry">
            <mxRectangle width="164" height="40" as="alternateBounds" />
          </mxGeometry>
        </mxCell>
        <mxCell id="_f50yiyxXnha7IkVcN_A-72" value="&lt;u&gt;posHorizontal&lt;/u&gt;" style="shape=partialRectangle;html=1;whiteSpace=wrap;connectable=0;strokeColor=inherit;overflow=hidden;fillColor=none;top=0;left=0;bottom=0;right=0;pointerEvents=1;" vertex="1" parent="_f50yiyxXnha7IkVcN_A-67">
          <mxGeometry x="328" width="164" height="40" as="geometry">
            <mxRectangle width="164" height="40" as="alternateBounds" />
          </mxGeometry>
        </mxCell>
        <mxCell id="_f50yiyxXnha7IkVcN_A-70" value="&lt;b&gt;PASA&lt;/b&gt;" style="text;html=1;strokeColor=none;fillColor=none;align=center;verticalAlign=middle;whiteSpace=wrap;rounded=0;" vertex="1" parent="1">
          <mxGeometry x="281.5" y="1610" width="245" height="30" as="geometry" />
        </mxCell>
        <mxCell id="_f50yiyxXnha7IkVcN_A-71" value="3NF" style="text;strokeColor=none;fillColor=none;html=1;fontSize=24;fontStyle=1;verticalAlign=middle;align=center;" vertex="1" parent="1">
          <mxGeometry x="20" y="1640" width="100" height="40" as="geometry" />
        </mxCell>
        <mxCell id="_f50yiyxXnha7IkVcN_A-75" value="&lt;font style=&quot;font-size: 14px;&quot;&gt;Está en segunda forma normal porque todos los atributos no principales tienen una dependencia funcional completa con la clave primaria&lt;/font&gt;" style="text;html=1;strokeColor=none;fillColor=none;align=center;verticalAlign=middle;whiteSpace=wrap;rounded=0;" vertex="1" parent="1">
          <mxGeometry x="-340" y="400" width="320" height="90" as="geometry" />
        </mxCell>
        <mxCell id="_f50yiyxXnha7IkVcN_A-76" value="&lt;div style=&quot;text-align: justify;&quot;&gt;&lt;span style=&quot;font-size: 14px; background-color: initial;&quot;&gt;Todas las demás relaciones están en 3º forma normal porque cada atributo no principal tiene una dependencia no transitiva con la clave primaria&lt;/span&gt;&lt;/div&gt;" style="text;html=1;strokeColor=none;fillColor=none;align=center;verticalAlign=middle;whiteSpace=wrap;rounded=0;" vertex="1" parent="1">
          <mxGeometry x="276" y="1750" width="276" height="60" as="geometry" />
        </mxCell>
      </root>
    </mxGraphModel>
  </diagram>
</mxfile>
